External Loads File
version=1
nRows=63
nColumns=13
Range=5.000000e-03-10 seconds
endheader
time 	forceRightX 	forceRightY 	forceRightZ 	pointRightX 	pointRightY 	pointRightZ 	forceLeftX 	forceLeftY 	forceLeftZ 	pointLeftX 	pointLeftY 	pointLeftZ 		
0.005000 48.306098 126.335848 -0.000000 0.168086 0.166667 -0.148755 37.279158 85.498534 -0.000000 0.311225 0.493220 -0.381813
0.010000 48.464962 126.694401 -0.000000 0.167891 0.166825 -0.148766 38.499913 88.662665 -0.000000 0.311459 0.493074 -0.381822
0.015000 48.670968 127.037364 -0.000000 0.167694 0.166987 -0.148753 39.493817 91.430031 -0.000000 0.311365 0.492930 -0.382207
0.020000 48.534615 127.488266 -0.000000 0.167487 0.167108 -0.148739 39.904750 93.789472 -0.000000 0.311575 0.492787 -0.382224
0.025000 48.617795 127.836203 -0.000000 0.167294 0.167202 -0.148772 40.098823 95.538324 -0.000000 0.311774 0.492767 -0.382222
0.030000 48.896378 128.095591 -0.000000 0.167090 0.167362 -0.148768 40.066999 96.720556 -0.000000 0.312273 0.492502 -0.381945
0.035000 49.503014 128.196233 -0.000000 0.166880 0.167488 -0.148776 39.984532 97.368600 -0.000000 0.312472 0.492372 -0.381941
0.040000 49.792196 128.353172 -0.000000 0.166703 0.167676 -0.148771 39.485814 97.777126 -0.000000 0.312677 0.492250 -0.381975
0.045000 50.345920 128.319957 -0.000000 0.166517 0.167827 -0.148759 39.137328 97.871264 -0.000000 0.312909 0.492122 -0.381949
0.050000 50.600369 128.327382 -0.000000 0.166329 0.168002 -0.148756 38.595814 97.919521 -0.000000 0.313101 0.492011 -0.381956
0.055000 53.208909 127.330357 -0.000000 0.166133 0.168107 -0.148737 39.939228 97.173638 -0.000000 0.313304 0.491867 -0.381968
0.060000 53.370507 127.294063 -0.000000 0.165941 0.168214 -0.148747 39.525778 97.132923 -0.000000 0.313497 0.491701 -0.381982
0.065000 53.732927 127.143844 -0.000000 0.165765 0.168367 -0.148720 39.346403 96.980154 -0.000000 0.313707 0.491558 -0.381978
0.070000 53.870346 127.073351 -0.000000 0.165587 0.168480 -0.148713 39.008277 96.834890 -0.000000 0.313930 0.491438 -0.381980
0.075000 53.993423 127.016026 -0.000000 0.165403 0.168605 -0.148732 38.614893 96.620518 -0.000000 0.314122 0.491305 -0.381976
0.080000 54.149992 126.956767 -0.000000 0.165226 0.168689 -0.148730 38.190517 96.337009 -0.000000 0.314325 0.491181 -0.381992
0.085000 54.271982 126.903852 -0.000000 0.165036 0.168781 -0.148730 37.710781 96.041756 -0.000000 0.314508 0.491033 -0.381989
0.090000 54.380992 126.812495 -0.000000 0.164862 0.168916 -0.148728 37.233484 95.758011 -0.000000 0.314695 0.490925 -0.381998
0.095000 54.214668 126.765815 -0.000000 0.164697 0.169049 -0.148739 36.596759 95.573517 -0.000000 0.314910 0.490838 -0.381957
0.100000 54.266740 126.553400 -0.000000 0.164556 0.169183 -0.148733 36.188789 95.351945 -0.000000 0.315129 0.490731 -0.381950
0.105000 54.088087 126.401591 -0.000000 0.164392 0.169352 -0.148738 35.661578 95.235347 -0.000000 0.315289 0.490621 -0.381952
0.110000 54.007776 126.202651 -0.000000 0.164248 0.169492 -0.148723 35.248683 95.145795 -0.000000 0.315466 0.490512 -0.381989
0.115000 57.116954 124.593463 -0.000000 0.164112 0.169610 -0.148728 37.283364 94.207920 -0.000000 0.315650 0.490362 -0.382010
0.120000 57.072845 124.385990 -0.000000 0.163981 0.169698 -0.148717 36.976521 94.262105 -0.000000 0.315832 0.490279 -0.382014
0.125000 56.921443 124.253797 -0.000000 0.163837 0.169777 -0.148710 36.619850 94.423638 -0.000000 0.316018 0.490158 -0.382014
0.130000 56.915417 124.111470 -0.000000 0.163695 0.169911 -0.148705 36.405724 94.596159 -0.000000 0.316192 0.490068 -0.382018
0.135000 57.061068 123.974739 -0.000000 0.163552 0.170029 -0.148690 36.339127 94.724827 -0.000000 0.316351 0.489958 -0.382022
0.140000 56.981165 124.026468 -0.000000 0.163411 0.170121 -0.148688 36.111482 94.862972 -0.000000 0.316508 0.489870 -0.382019
0.145000 57.103635 124.075320 -0.000000 0.163286 0.170196 -0.148684 36.009954 94.849778 -0.000000 0.316652 0.489776 -0.382035
0.150000 57.411706 124.115082 -0.000000 0.163157 0.170284 -0.148677 35.994843 94.669429 -0.000000 0.316799 0.489687 -0.382034
0.155000 57.677588 124.212146 -0.000000 0.163028 0.170346 -0.148692 35.896508 94.374110 -0.000000 0.316959 0.489616 -0.382052
0.160000 57.814416 124.370005 -0.000000 0.162908 0.170412 -0.148705 35.657135 93.980839 -0.000000 0.317074 0.489532 -0.382078
0.165000 57.711015 124.637997 -0.000000 0.162795 0.170493 -0.148705 35.178752 93.522842 -0.000000 0.317213 0.489494 -0.382055
0.170000 58.003237 124.748155 -0.000000 0.162678 0.170561 -0.148721 34.920684 92.852667 -0.000000 0.317351 0.489442 -0.382047
0.175000 58.192350 124.947407 -0.000000 0.162580 0.170620 -0.148739 34.525764 92.183153 -0.000000 0.317506 0.489394 -0.382006
0.180000 58.292979 125.211329 -0.000000 0.162493 0.170669 -0.148740 34.061831 91.589135 -0.000000 0.317610 0.489348 -0.382002
0.185000 58.394026 125.461797 -0.000000 0.162422 0.170742 -0.148732 33.652639 91.092517 -0.000000 0.317716 0.489310 -0.381988
0.190000 58.478110 125.675850 -0.000000 0.162349 0.170769 -0.148739 33.317968 90.699475 -0.000000 0.317814 0.489273 -0.381992
0.195000 58.535742 125.845218 -0.000000 0.162292 0.170833 -0.148733 33.059471 90.392755 -0.000000 0.317901 0.489248 -0.381986
0.200000 58.713209 125.902543 -0.000000 0.162243 0.170860 -0.148744 32.972201 90.110162 -0.000000 0.317986 0.489202 -0.381991
0.205000 58.435397 126.118047 -0.000000 0.162213 0.170877 -0.148742 32.620585 89.973363 -0.000000 0.318031 0.489180 -0.381996
0.210000 58.578223 126.087266 -0.000000 0.162188 0.170900 -0.148725 32.605345 89.730936 -0.000000 0.318096 0.489170 -0.381992
0.215000 58.523448 126.106357 -0.000000 0.162164 0.170920 -0.148731 32.469669 89.536538 -0.000000 0.318117 0.489156 -0.382013
0.220000 58.576076 126.053088 -0.000000 0.162175 0.170926 -0.148726 32.426639 89.324279 -0.000000 0.318116 0.489156 -0.382011
0.225000 58.560203 126.036425 -0.000000 0.162195 0.170915 -0.148733 32.349589 89.159136 -0.000000 0.318130 0.489163 -0.382035
0.230000 58.683295 125.986545 -0.000000 0.162202 0.170885 -0.148721 32.369565 88.994673 -0.000000 0.318125 0.489179 -0.382045
0.235000 58.807681 125.989837 -0.000000 0.162225 0.170876 -0.148724 32.356723 88.861809 -0.000000 0.318104 0.489209 -0.382044
0.240000 59.034809 126.022124 -0.000000 0.162261 0.170842 -0.148731 32.352624 88.736424 -0.000000 0.318077 0.489244 -0.382054
0.245000 60.280015 125.659831 -0.000000 0.162324 0.170764 -0.148729 33.004621 88.390021 -0.000000 0.318031 0.489290 -0.382065
0.250000 60.447017 125.873202 -0.000000 0.162376 0.170763 -0.148732 32.889765 88.369960 -0.000000 0.317982 0.489329 -0.382072
0.255000 60.805205 126.008478 -0.000000 0.162423 0.170707 -0.148738 32.966409 88.333995 -0.000000 0.317940 0.489373 -0.382054
0.260000 61.044521 126.172144 -0.000000 0.162485 0.170670 -0.148747 33.038530 88.332505 -0.000000 0.317888 0.489401 -0.382053
0.265000 61.257512 126.295952 -0.000000 0.162557 0.170640 -0.148739 33.148491 88.300516 -0.000000 0.317824 0.489448 -0.382056
0.270000 61.439100 126.361872 -0.000000 0.162629 0.170575 -0.148725 33.266590 88.206003 -0.000000 0.317768 0.489494 -0.382055
0.275000 60.353657 126.929797 -0.000000 0.162707 0.170522 -0.148719 32.528973 88.352274 -0.000000 0.317687 0.489535 -0.382050
0.280000 60.444704 126.777352 -0.000000 0.162795 0.170464 -0.148712 32.650558 88.099810 -0.000000 0.317619 0.489577 -0.382044
0.285000 60.520413 126.449027 -0.000000 0.162880 0.170414 -0.148697 32.795874 87.756398 -0.000000 0.317544 0.489632 -0.382058
0.290000 60.144184 126.175898 -0.000000 0.162954 0.170340 -0.148700 32.643008 87.440903 -0.000000 0.317486 0.489675 -0.382024
0.295000 60.117348 125.648972 -0.000000 0.163037 0.170300 -0.148691 32.733257 86.967365 -0.000000 0.317408 0.489720 -0.382020
0.300000 59.860757 125.247991 -0.000000 0.163115 0.170250 -0.148690 32.655751 86.527672 -0.000000 0.317313 0.489785 -0.382029
0.305000 59.431085 125.038551 -0.000000 0.163195 0.170210 -0.148698 32.447204 86.168120 -0.000000 0.317258 0.489847 -0.381993
0.310000 59.105570 124.931322 -0.000000 0.163291 0.170145 -0.148691 32.309066 85.878587 -0.000000 0.317160 0.489913 -0.382024
0.315000 58.950154 124.885330 -0.000000 0.163373 0.170095 -0.148695 32.302203 85.678932 -0.000000 0.317082 0.489978 -0.381993
